<?xml version="1.0" encoding="utf-8"?>
<!-- Generator: Adobe Illustrator 19.2.0, SVG Export Plug-In . SVG Version: 6.00 Build 0)  -->
<svg version="1.1" id="Layer_1" xmlns="http://www.w3.org/2000/svg" xmlns:xlink="http://www.w3.org/1999/xlink" x="0px" y="0px"
	 viewBox="0 0 283.5 283.5" style="enable-background:new 0 0 283.5 283.5;" xml:space="preserve">
<style type="text/css">
	.st0{fill:#00A3A6;}
	.st1{fill:#E32322;}
	.st2{fill:#3E285E;}
</style>
<title>Artboard 8 copy 4</title>
<g>
	<g>
		<g>
			<path class="st0" d="M232.5,95.3c-1.1-1.1-2.3-2.2-3.5-3.2c-10.6-9.2-23.5-14.5-36.7-15.9c-17.6-1.8-35.9,3.5-50.1,15.8l3.4,3.3
				c11.2,11.2,17.6,25.5,19.1,40.2c1.9,19.2-4.4,39-19.1,53.7c-1.2,1.2-2.4,2.3-3.6,3.3l43.8,43.2v-27.1c16.6,0,31.6-6.1,43.2-16.2
				c1.2-1,2.4-2.1,3.5-3.2l0,0C258.5,163.3,258.5,121.2,232.5,95.3z"/>
		</g>
	</g>
	<g>
		<g>
			<path class="st1" d="M119.5,149c-1.9-19.2,4.4-39,19.1-53.7c1.2-1.2,2.4-2.3,3.6-3.3L98.5,48.8v27.1c-16.6,0-31.6,6.1-43.2,16.2
				c-1.2,1-2.4,2.1-3.5,3.2l0,0c-25.9,25.9-25.9,68,0,93.9c1.1,1.1,2.3,2.2,3.5,3.2c10.6,9.2,23.5,14.5,36.7,15.9
				c17.6,1.8,35.9-3.5,50.1-15.8l-3.4-3.3C127.4,178,121,163.7,119.5,149z"/>
		</g>
	</g>
	<g>
		<g>
			<path class="st2" d="M164.7,135.5c-1.5-14.7-7.9-29-19.1-40.2l-3.4-3.3c-1.2,1.1-2.4,2.2-3.6,3.3c-14.7,14.7-21.1,34.5-19.1,53.7
				c1.5,14.7,7.9,29,19.1,40.2l3.4,3.3c1.2-1.1,2.4-2.2,3.6-3.3C160.3,174.5,166.7,154.7,164.7,135.5z"/>
		</g>
	</g>
</g>
</svg>
