<?xml version="1.0" encoding="utf-8"?>
<!-- Generator: Adobe Illustrator 19.2.1, SVG Export Plug-In . SVG Version: 6.00 Build 0)  -->
<svg version="1.1" id="Layer_1" xmlns="http://www.w3.org/2000/svg" xmlns:xlink="http://www.w3.org/1999/xlink" x="0px" y="0px"
	 viewBox="0 0 119.3 119.3" style="enable-background:new 0 0 119.3 119.3;" xml:space="preserve">
<style type="text/css">
	.st0{fill:#FFFFFF;stroke:#3E285E;stroke-width:2;stroke-miterlimit:10;}
	.st1{fill:#E32322;}
	.st2{fill:#00A1A4;}
	.st3{fill:#3E285E;}
</style>
<g>
	<circle class="st0" cx="59.6" cy="59.6" r="58.6"/>
	<path class="st1" d="M60.3,47.7c1.4-1.4,3.1-2.7,4.9-3.7V32.5c0-1.9-1.5-3.4-3.4-3.4H38.1c-1.9,0-3.4,1.5-3.4,3.4l0,0v48.4
		c0,1.9,1.5,3.4,3.4,3.4h23.6c1.5,0,2.9-1.1,3.3-2.5C54.6,76,50.9,62.9,56.6,52.5C57.6,50.7,58.8,49.1,60.3,47.7L60.3,47.7z"/>
	<path class="st2" d="M90.7,47.7C84,40.9,73.5,39.4,65.1,44v36.8c0,0.3,0,0.6-0.1,0.8c2.5,1.4,5.2,2.3,8,2.6v11.5l17.7-17.7
		C98.9,69.8,98.8,56.2,90.7,47.7z"/>
	<path class="st3" d="M65.2,44c-10.4,5.7-14.3,18.8-8.6,29.2c2,3.6,4.9,6.5,8.4,8.5c0.1-0.3,0.1-0.6,0.1-0.8V44z"/>
</g>
</svg>
