<?xml version="1.0" encoding="utf-8"?>
<!-- Generator: Adobe Illustrator 19.2.1, SVG Export Plug-In . SVG Version: 6.00 Build 0)  -->
<svg version="1.1" id="Layer_1" xmlns="http://www.w3.org/2000/svg" xmlns:xlink="http://www.w3.org/1999/xlink" x="0px" y="0px"
	 viewBox="0 0 119.3 119.3" style="enable-background:new 0 0 119.3 119.3;" xml:space="preserve">
<style type="text/css">
	.st0{fill:#FFFFFF;stroke:#3E285E;stroke-width:2;stroke-miterlimit:10;}
	.st1{fill:#00A3A6;}
	.st2{fill:#E52322;}
	.st3{fill:#3E285E;}
</style>
<g>
	
		<ellipse transform="matrix(1 -7.876633e-03 7.876633e-03 1 -0.4678 0.4715)" class="st0" cx="59.6" cy="59.6" rx="58.6" ry="58.6"/>
	<g>
		<g>
			<g>
				<path class="st1" d="M89.5,44.7c-0.4-0.4-0.8-0.7-1.2-1.1c-3.6-3.1-7.9-4.8-12.4-5.2c-5.9-0.6-12,1.3-16.8,5.4l1.1,1.1
					c3.8,3.7,6,8.5,6.5,13.5c0.7,6.4-1.4,13.1-6.3,18.1c-0.4,0.4-0.8,0.8-1.2,1.1L74.1,92l-0.1-9.1c5.6,0,10.6-2.1,14.5-5.6
					c0.4-0.4,0.8-0.7,1.2-1.1l0,0C98.3,67.5,98.2,53.3,89.5,44.7z"/>
			</g>
		</g>
		<g>
			<g>
				<path class="st2" d="M51.6,63C50.9,56.6,53,49.9,57.9,45c0.4-0.4,0.8-0.8,1.2-1.1L44.3,29.4l0.1,9.1c-5.6,0-10.6,2.1-14.5,5.6
					c-0.4,0.4-0.8,0.7-1.2,1.1l0,0c-8.6,8.8-8.5,22.9,0.2,31.6c0.4,0.4,0.8,0.7,1.2,1.1c3.6,3.1,7.9,4.8,12.4,5.2
					c5.9,0.6,12-1.3,16.8-5.4l-1.1-1.1C54.3,72.8,52.2,68,51.6,63z"/>
			</g>
		</g>
		<g>
			<g>
				<path class="st3" d="M66.8,58.4c-0.5-4.9-2.7-9.7-6.5-13.5l-1.1-1.1c-0.4,0.4-0.8,0.7-1.2,1.1c-4.9,5-7,11.7-6.3,18.1
					c0.5,4.9,2.7,9.7,6.5,13.5l1.1,1.1c0.4-0.4,0.8-0.7,1.2-1.1C65.4,71.5,67.5,64.8,66.8,58.4z"/>
			</g>
		</g>
	</g>
</g>
</svg>
