<?xml version="1.0" encoding="utf-8"?>
<!-- Generator: Adobe Illustrator 19.2.1, SVG Export Plug-In . SVG Version: 6.00 Build 0)  -->
<svg version="1.1" id="Layer_1" xmlns="http://www.w3.org/2000/svg" xmlns:xlink="http://www.w3.org/1999/xlink" x="0px" y="0px"
	 viewBox="0 0 119.3 119.3" style="enable-background:new 0 0 119.3 119.3;" xml:space="preserve">
<style type="text/css">
	.st0{fill:#FFFFFF;stroke:#3E285E;stroke-width:2;stroke-miterlimit:10;}
	.st1{fill:#00A1A4;}
	.st2{fill:#E32322;}
	.st3{fill:none;}
	.st4{fill:#3E285E;}
</style>
<g>
	<circle class="st0" cx="59.6" cy="59.6" r="58.6"/>
	<g>
		<circle class="st1" cx="81.2" cy="46.5" r="11.3"/>
		<circle class="st2" cx="38.1" cy="46.5" r="11"/>
		<path class="st2" d="M20.3,63.7c1.3-1.9,3.5-2.9,5.8-2.8v0l22.3,0.1c-3.8,0.5-6.5,3.9-6,7.7c0.2,1.9,1.3,3.7,2.9,4.8l14.4,10.3
			l-7.8,5.6l0,0c-2.3,1.8-5.6,1.8-8,0.2l0,0L21.8,73.3C18.7,71.1,18,66.8,20.3,63.7z"/>
		<path class="st1" d="M74,73.4c3.1-2.2,3.9-6.5,1.7-9.6c-1.1-1.6-2.9-2.7-4.8-2.9l23.3-0.1l0,0.1c3.8,0.4,6.5,3.9,6.1,7.7
			c-0.2,1.9-1.2,3.7-2.8,4.8l-22,16.1l0,0c-2.4,1.7-5.6,1.6-8-0.2l0,0l-7.8-5.6l11.8-8.4L74,73.4z"/>
		<line class="st3" x1="59.6" y1="66.7" x2="59.6" y2="66.7"/>
		<path class="st4" d="M59.6,66.7l6.5-4.7c3.1-2.2,7.4-1.4,9.6,1.7c2.2,3.1,1.4,7.4-1.7,9.6l0,0l-2.5,1.8l-11.8,8.4L45.2,73.4
			c-3.1-2.2-3.9-6.5-1.7-9.6c1.5-2.1,4-3.2,6.6-2.9l0,0c1.1,0.1,2.1,0.5,3,1.2L59.6,66.7"/>
	</g>
</g>
</svg>
