<?xml version="1.0" encoding="utf-8"?><svg version="1.1" id="Layer_1" xmlns="http://www.w3.org/2000/svg" xmlns:xlink="http://www.w3.org/1999/xlink" x="0px" y="0px" width="838px" height="442.8px" viewBox="0 0 838 442.8" style="enable-background:new 0 0 838 442.8;" xml:space="preserve"><style type="text/css">.st0{clip-path:url(#SVGID_2_);fill:#3E285E;}</style><g><g><defs><rect id="SVGID_1_" width="838" height="442.8"/></defs><clipPath id="SVGID_2_"><use xlink:href="#SVGID_1_"  style="overflow:visible;"/></clipPath><path class="st0" d="M-40.8-146.9c9-9,18.4-17.5,27.9-25.7c110-95,250.6-135.7,386.9-121.8C476-284,575.3-243,657.4-171.7c9.2,8,18.4,16.1,27.1,24.8c200.3,200.3,200.3,525,0,725.3l0,0c-8.7,8.7-17.7,16.9-27,25c-89.7,78-205.5,125.3-333.9,125.3v208.9L-14.6,604.3l-26.2-25.8c-86.9-86.9-136-197.2-147.6-310.6C-203.4,119.9-154.2-33.4-40.8-146.9z"/></g></g></svg>