<?xml version="1.0" encoding="utf-8"?>
<!-- Generator: Adobe Illustrator 19.2.1, SVG Export Plug-In . SVG Version: 6.00 Build 0)  -->
<svg version="1.1" id="Layer_1" xmlns="http://www.w3.org/2000/svg" xmlns:xlink="http://www.w3.org/1999/xlink" x="0px" y="0px"
	 viewBox="0 0 119.3 119.3" style="enable-background:new 0 0 119.3 119.3;" xml:space="preserve">
<style type="text/css">
	.st0{fill:#FFFFFF;stroke:#3E285E;stroke-width:2;stroke-miterlimit:10;}
	.st1{fill:#E32322;}
	.st2{fill:#00A1A4;}
	.st3{fill:#3E285E;}
</style>
<g>
	<circle class="st0" cx="59.6" cy="59.6" r="58.6"/>
	<g>
		<path class="st1" d="M85.1,45.2c-0.1-1.7,1.3-3.6,0.9-5.3c-0.4-1.7-2.6-2.8-3.3-4.3c-0.7-1.5-0.2-3.9-1.2-5.3s-3.4-1.6-4.7-2.7
			c-1.3-1.2-1.7-3.5-3.2-4.4s-3.7-0.1-5.4-0.7c-1.6-0.6-2.9-2.6-4.6-2.8c-1.7-0.3-3.5,1.3-5.2,1.4s-3.6-1.3-5.3-0.9
			c-1.7,0.4-2.8,2.6-4.3,3.3c-1.5,0.7-3.9,0.2-5.3,1.2c-1.4,1-1.6,3.4-2.7,4.7c-1.2,1.3-3.5,1.7-4.4,3.2c-0.9,1.5-0.1,3.7-0.7,5.4
			s-2.6,2.9-2.8,4.6c-0.3,1.7,1.3,3.5,1.4,5.2c0.1,1.7-1.3,3.6-0.9,5.3c0.4,1.7,2.6,2.8,3.3,4.3s0.2,3.9,1.2,5.3s3.4,1.6,4.7,2.7
			c0.6,0.6,1,1.3,1.4,2l3-11.1h25.5l3.3,12.1c0.1,0,0.1-0.1,0.2-0.1c1.4-1,1.6-3.4,2.7-4.7c1.2-1.3,3.5-1.7,4.4-3.2
			c0.9-1.5,0.1-3.7,0.7-5.4c0.6-1.6,2.6-2.9,2.8-4.6C86.7,48.7,85.1,46.9,85.1,45.2z"/>
		<path class="st2" d="M66.2,72.7c-1.7,0.4-3.6-0.9-5.3-0.9c-1.7,0.1-3.5,1.6-5.2,1.4c-1.7-0.3-3-2.3-4.6-2.8
			c-1.6-0.6-3.9,0.2-5.4-0.7c-0.8-0.5-1.3-1.4-1.8-2.3L37,93l8.9,0.1l7.3,6l6.4-24l6.4,24l7.3-6l8.9-0.1l-6.6-24.7
			c-1.4,0.9-3.6,0.4-5.1,1.2C69,70.2,67.9,72.3,66.2,72.7z"/>
		<path class="st1" d="M46.9,56.2l-3,11.1c0.5,0.9,1,1.9,1.8,2.3c1.5,0.9,3.7,0.1,5.4,0.7c1.6,0.6,2.9,2.6,4.6,2.8
			c1.7,0.3,3.5-1.3,5.2-1.4s3.6,1.3,5.3,0.9s2.8-2.6,4.3-3.3s3.7-0.3,5.1-1.2l-3.2-12.1L46.9,56.2z"/>
		<path class="st3" d="M45.8,60.4l-1.9,7c0.5,0.9,1,1.9,1.8,2.3c1.5,0.9,3.7,0.1,5.4,0.7c1.6,0.6,2.9,2.6,4.6,2.8
			c1.7,0.3,3.5-1.3,5.2-1.4s3.6,1.3,5.3,0.9s2.8-2.6,4.3-3.3s3.7-0.3,5.1-1.2l-2.1-7.9L45.8,60.4z"/>
	</g>
</g>
</svg>
