<?xml version="1.0" encoding="utf-8"?>
<!-- Generator: Adobe Illustrator 19.2.1, SVG Export Plug-In . SVG Version: 6.00 Build 0)  -->
<svg version="1.1" id="Layer_1" xmlns="http://www.w3.org/2000/svg" xmlns:xlink="http://www.w3.org/1999/xlink" x="0px" y="0px"
	 viewBox="0 0 119.3 119.3" style="enable-background:new 0 0 119.3 119.3;" xml:space="preserve">
<style type="text/css">
	.st0{fill:#FFFFFF;stroke:#3E285E;stroke-width:2;stroke-miterlimit:10;}
	.st1{clip-path:url(#SVGID_2_);}
	.st2{fill:#00A1A4;}
	.st3{fill:#E32322;}
	.st4{clip-path:url(#SVGID_4_);}
	.st5{fill:#3E285E;}
</style>
<g>
	<circle class="st0" cx="59.6" cy="59.6" r="58.6"/>
	<g>
		<defs>
			<rect id="SVGID_1_" x="19.7" y="27.2" width="88.9" height="70.4"/>
		</defs>
		<clipPath id="SVGID_2_">
			<use xlink:href="#SVGID_1_"  style="overflow:visible;"/>
		</clipPath>
		<g class="st1">
			<path class="st2" d="M44.7,85.9c-2.2,0-4.3-0.9-5.8-2.4v0l-5.2-4.5l0,0l-9.4-8l-2-1.7l0,0L20.5,67L31,93.9l1.3,3.2h0
				c0.2,0.4,0.6,0.6,1.1,0.6c0.3,0,0.7-0.2,0.9-0.4l16.1-13.7l-0.2,0.2C48.6,85.1,46.9,86,44.7,85.9"/>
			<path class="st3" d="M45.5,52.9c7.1,0,12.8-5.8,12.8-12.9c0-7.1-5.8-12.8-12.9-12.8c-7.1,0-12.8,5.8-12.8,12.8
				C32.7,47.2,38.4,52.9,45.5,52.9"/>
		</g>
	</g>
	<polygon class="st3" points="50.4,83.5 53,81.3 50.4,83.5 	"/>
	<g>
		<defs>
			<rect id="SVGID_3_" x="19.7" y="27.2" width="88.9" height="70.4"/>
		</defs>
		<clipPath id="SVGID_4_">
			<use xlink:href="#SVGID_3_"  style="overflow:visible;"/>
		</clipPath>
		<g class="st4">
			<path class="st3" d="M33.7,79.1L33.7,79.1l34.2-20.5c-0.2-0.2-0.4-0.4-0.6-0.7c-1.5-1.5-3.6-2.4-5.7-2.4H27.8c-4.4,0-8,3.5-8,8
				c0,2.2,0.9,4.4,2.5,5.9l2,1.7L33.7,79.1z"/>
			<path class="st2" d="M67.9,58.6c2.6,3.3,2.3,8-0.8,10.8l0,0L53,81.3l55.6-47.2L67.9,58.6z"/>
			<path class="st5" d="M67.1,69.4c3.1-2.8,3.4-7.6,0.8-10.8L33.7,79.1l5.2,4.5v0c1.5,1.6,3.6,2.4,5.8,2.4c2.2,0,4-0.8,5.5-2.2
				l0.2-0.2l2.6-2.2L67.1,69.4L67.1,69.4z"/>
			<path class="st5" d="M24.3,71.1l-2-1.7l0,0L24.3,71.1z"/>
		</g>
	</g>
</g>
</svg>
