<?xml version="1.0" encoding="utf-8"?>
<!-- Generator: Adobe Illustrator 19.2.1, SVG Export Plug-In . SVG Version: 6.00 Build 0)  -->
<svg version="1.1" id="Layer_1" xmlns="http://www.w3.org/2000/svg" xmlns:xlink="http://www.w3.org/1999/xlink" x="0px" y="0px"
	 viewBox="0 0 119.3 119.3" style="enable-background:new 0 0 119.3 119.3;" xml:space="preserve">
<style type="text/css">
	.st0{fill:#FFFFFF;stroke:#3E285E;stroke-width:2;stroke-miterlimit:10;}
	.st1{fill:#00A1A4;}
	.st2{fill:#E32322;}
	.st3{fill:#3E285E;}
</style>
<g>
	<g>
		<circle class="st0" cx="59.6" cy="59.6" r="58.6"/>
		<g>
			<path class="st1" d="M90.4,65.4h-3.6c-1,0-1.8-0.5-2.2-1.4c-0.4-0.8-0.8-1.6-1.3-2.4c-0.3-0.4-0.4-0.9-0.4-1.3V55
				c0-1.4-1.1-2.5-2.5-2.5c-0.3,0-0.7,0.1-1,0.2c-0.6,0.2-1.2,0.5-1.7,0.8C77,54,76,54,75.2,53.5c-0.6-0.4-1.3-0.8-2-1.2
				c-0.4-0.2-0.7-0.4-1.1-0.5C65.2,60.4,52.7,61.9,44,55c-1.2-0.9-2.3-2-3.2-3.2c-0.4,0.2-0.7,0.4-1.1,0.6
				c-8,4.4-13.3,11.9-13.3,20.3c0,6.8,3.4,12.9,8.8,17.3c0.6,0.5,1,1.2,1,1.9v8.1h10.3l1.3-3.9c5.7,1.4,11.7,1.4,17.4,0l1.3,3.9
				h10.3v-8.1c0-0.8,0.4-1.5,0.9-1.9c2.6-2.1,4.8-4.7,6.4-7.7c0.4-0.8,1.3-1.3,2.2-1.3h4.1c1.4,0,2.5-1.1,2.5-2.5V67.9
				C92.9,66.5,91.8,65.4,90.4,65.4C90.4,65.4,90.4,65.4,90.4,65.4z"/>
			<path class="st2" d="M72.1,51.8c6.9-8.7,5.5-21.3-3.2-28.2s-21.3-5.5-28.2,3.2c-5.8,7.3-5.8,17.7,0,25C50.7,47,62.2,47,72.1,51.8
				z"/>
			<path class="st3" d="M56.5,59.3c6.1,0,11.9-2.8,15.7-7.6c-9.9-4.8-21.4-4.8-31.3,0C44.6,56.5,50.4,59.3,56.5,59.3z"/>
		</g>
	</g>
</g>
</svg>
