<svg id="Layer_1" data-name="Layer 1" xmlns="http://www.w3.org/2000/svg" viewBox="0 0 283.46 283.46"><defs><style>.cls-1{fill:#00a3a6;}.cls-2{fill:#e52322;}.cls-3{fill:#00a4af;}.cls-4{fill:#3e285e;}</style></defs><title>Artboard 8 copy</title><circle class="cls-1" cx="199.98" cy="97.35" r="30.54"/><circle class="cls-2" cx="83.49" cy="97.35" r="29.6"/><path class="cls-2" d="M35.37,143.9a18.67,18.67,0,0,1,15.72-7.69l0-.06,60.15.17a18.67,18.67,0,0,0-8.33,33.86l38.83,27.73-21.06,15h0a18.49,18.49,0,0,1-21.56.46h0L39.5,170A18.69,18.69,0,0,1,35.37,143.9Z"/><path class="cls-1" d="M180.56,170.18a18.67,18.67,0,0,0-8.26-33.85l62.94-.18-.05.2A18.67,18.67,0,0,1,244,170l-59.58,43.4h0a18.49,18.49,0,0,1-21.56-.46h0l-21.06-15,31.94-22.81Z"/><line class="cls-3" x1="141.73" y1="152.12" x2="141.76" y2="152.1"/><path class="cls-4" d="M141.76,152.1l17.43-12.6a18.69,18.69,0,1,1,21.37,30.67l-6.89,4.92-31.94,22.81L102.9,170.18a18.69,18.69,0,0,1,13.18-33.84h0a18.49,18.49,0,0,1,8.18,3.17l17.46,12.61"/></svg>