<?xml version="1.0" encoding="utf-8"?>
<!-- Generator: Adobe Illustrator 19.2.0, SVG Export Plug-In . SVG Version: 6.00 Build 0)  -->
<svg version="1.1" id="Layer_1" xmlns="http://www.w3.org/2000/svg" xmlns:xlink="http://www.w3.org/1999/xlink" x="0px" y="0px"
	 viewBox="0 0 182.8 177.4" style="enable-background:new 0 0 182.8 177.4;" xml:space="preserve">
<style type="text/css">
	.st0{fill:#00989B;}
	.st1{fill:#3E285E;}
	.st2{fill:#E32322;}
</style>
<title>Artboard 8 copy 4</title>
<g>
	<path class="st0" d="M144.1,106.7H38.7c-5.4,0-9.9-4.4-9.9-9.9v-59c0-5.4,4.4-9.9,9.9-9.9h105.4c5.4,0,9.9,4.4,9.9,9.9v59
		C154,102.3,149.5,106.7,144.1,106.7z"/>
	<g>
		<path class="st1" d="M131.7,128L116,106.4l15.9,22C131.8,128.3,131.8,128.1,131.7,128z"/>
		<path class="st1" d="M116,106.4l15.9-4.8c6-4.4,5-13.6-1.8-16.6L77,61.5c-6.8-3-14.3,2.5-13.6,9.9l3.8,35.5L116,106.4z"/>
		<path class="st1" d="M132.3,129c0.1,0.1,0.1,0.3,0.2,0.4C132.5,129.2,132.4,129,132.3,129z"/>
		<path class="st1" d="M133.1,130.3L133.1,130.3L133.1,130.3z"/>
	</g>
	<path class="st2" d="M116,106.4l-48.8,0.3l2.4,23.9c0.8,7.4,9.3,10.5,15.3,6.1l9.4-14l15.7,21.4c4.3,6,12.8,7.2,18.8,2.9
		c6-4.3,7.1-12.5,3.4-18.2L116,106.4z"/>
</g>
</svg>
